<svg xmlns="http://www.w3.org/2000/svg" viewBox="0 0 64 64" role="img" aria-label="Jesus fish with cello">
  <defs>
    <linearGradient id="bg" x1="0" y1="0" x2="1" y2="1">
      <stop offset="0%" stop-color="#1a130c"/>
      <stop offset="100%" stop-color="#0a0806"/>
    </linearGradient>
    <linearGradient id="gold" x1="0" y1="0" x2="1" y2="1">
      <stop offset="0%" stop-color="#e8c97a"/>
      <stop offset="100%" stop-color="#b8892f"/>
    </linearGradient>
  </defs>
  <rect width="64" height="64" rx="10" fill="url(#bg)"/>
  <path d="M9 34c8-9 18-12 30-9l8-4-4 7 4 7-8-4C27 35 17 37 9 34Z" fill="none" stroke="url(#gold)" stroke-width="3" stroke-linecap="round" stroke-linejoin="round"/>
  <ellipse cx="34" cy="34" rx="6" ry="12" fill="none" stroke="#e6b86d" stroke-width="1.8"/>
  <line x1="34" y1="22" x2="34" y2="46" stroke="#e6b86d" stroke-width="1.8"/>
  <path d="M34 28c2 0 3-1 3-3" fill="none" stroke="#e6b86d" stroke-width="1.4" stroke-linecap="round"/>
  <path d="M34 40c2 0 3 1 3 3" fill="none" stroke="#e6b86d" stroke-width="1.4" stroke-linecap="round"/>
  <line x1="26" y1="24" x2="40" y2="44" stroke="#f4d7a1" stroke-width="1.6" stroke-linecap="round" opacity="0.9"/>
</svg>
